<mxfile host="app.diagrams.net" agent="Mozilla/5.0 (Windows NT 10.0; Win64; x64) AppleWebKit/537.36 (KHTML, like Gecko) Chrome/129.0.0.0 Safari/537.36" version="24.7.17">
  <diagram name="Página-1" id="GK7xjGF5MkG0o6UKSZeo">
    <mxGraphModel dx="2261" dy="772" grid="1" gridSize="10" guides="1" tooltips="1" connect="1" arrows="1" fold="1" page="1" pageScale="1" pageWidth="827" pageHeight="1169" math="0" shadow="0">
      <root>
        <mxCell id="0" />
        <mxCell id="1" parent="0" />
        <mxCell id="vaa7z4H8c23S9jBAUSb3-2" value="Planta" style="rounded=0;whiteSpace=wrap;html=1;" parent="1" vertex="1">
          <mxGeometry x="150" y="180" width="120" height="60" as="geometry" />
        </mxCell>
        <mxCell id="vaa7z4H8c23S9jBAUSb3-3" value="Proceso" style="rounded=0;whiteSpace=wrap;html=1;" parent="1" vertex="1">
          <mxGeometry x="570" y="180" width="120" height="60" as="geometry" />
        </mxCell>
        <mxCell id="vaa7z4H8c23S9jBAUSb3-4" value="Máquina" style="rounded=0;whiteSpace=wrap;html=1;" parent="1" vertex="1">
          <mxGeometry x="55" y="410" width="120" height="60" as="geometry" />
        </mxCell>
        <mxCell id="vaa7z4H8c23S9jBAUSb3-5" value="Técnico" style="rounded=0;whiteSpace=wrap;html=1;" parent="1" vertex="1">
          <mxGeometry x="570" y="410" width="120" height="60" as="geometry" />
        </mxCell>
        <mxCell id="vaa7z4H8c23S9jBAUSb3-8" value="proceso- planta" style="rhombus;whiteSpace=wrap;html=1;" parent="1" vertex="1">
          <mxGeometry x="374" y="180" width="80" height="60" as="geometry" />
        </mxCell>
        <mxCell id="vaa7z4H8c23S9jBAUSb3-9" value="planta- máquina" style="rhombus;whiteSpace=wrap;html=1;" parent="1" vertex="1">
          <mxGeometry x="170" y="290" width="80" height="60" as="geometry" />
        </mxCell>
        <mxCell id="vaa7z4H8c23S9jBAUSb3-13" value="periodo" style="ellipse;whiteSpace=wrap;html=1;aspect=fixed;" parent="1" vertex="1">
          <mxGeometry x="720" y="480" width="50" height="50" as="geometry" />
        </mxCell>
        <mxCell id="vaa7z4H8c23S9jBAUSb3-14" value="fecha inicio" style="ellipse;whiteSpace=wrap;html=1;aspect=fixed;" parent="1" vertex="1">
          <mxGeometry x="740" y="560" width="50" height="50" as="geometry" />
        </mxCell>
        <mxCell id="vaa7z4H8c23S9jBAUSb3-15" value="fecha fin" style="ellipse;whiteSpace=wrap;html=1;aspect=fixed;" parent="1" vertex="1">
          <mxGeometry x="810" y="490" width="50" height="50" as="geometry" />
        </mxCell>
        <mxCell id="vaa7z4H8c23S9jBAUSb3-16" value="" style="endArrow=none;html=1;rounded=0;entryX=1;entryY=1;entryDx=0;entryDy=0;exitX=0;exitY=0;exitDx=0;exitDy=0;" parent="1" source="vaa7z4H8c23S9jBAUSb3-13" target="vaa7z4H8c23S9jBAUSb3-5" edge="1">
          <mxGeometry width="50" height="50" relative="1" as="geometry">
            <mxPoint x="410" y="350" as="sourcePoint" />
            <mxPoint x="460" y="300" as="targetPoint" />
          </mxGeometry>
        </mxCell>
        <mxCell id="vaa7z4H8c23S9jBAUSb3-17" value="" style="endArrow=none;html=1;rounded=0;entryX=1;entryY=1;entryDx=0;entryDy=0;exitX=0;exitY=0.5;exitDx=0;exitDy=0;" parent="1" source="vaa7z4H8c23S9jBAUSb3-15" target="vaa7z4H8c23S9jBAUSb3-13" edge="1">
          <mxGeometry width="50" height="50" relative="1" as="geometry">
            <mxPoint x="817" y="547" as="sourcePoint" />
            <mxPoint x="780" y="510" as="targetPoint" />
          </mxGeometry>
        </mxCell>
        <mxCell id="vaa7z4H8c23S9jBAUSb3-18" value="" style="endArrow=none;html=1;rounded=0;entryX=1;entryY=1;entryDx=0;entryDy=0;exitX=0.5;exitY=0;exitDx=0;exitDy=0;" parent="1" source="vaa7z4H8c23S9jBAUSb3-14" target="vaa7z4H8c23S9jBAUSb3-13" edge="1">
          <mxGeometry width="50" height="50" relative="1" as="geometry">
            <mxPoint x="747" y="507" as="sourcePoint" />
            <mxPoint x="710" y="470" as="targetPoint" />
          </mxGeometry>
        </mxCell>
        <mxCell id="vaa7z4H8c23S9jBAUSb3-20" value="marca" style="ellipse;whiteSpace=wrap;html=1;aspect=fixed;" parent="1" vertex="1">
          <mxGeometry x="-5" y="490" width="50" height="50" as="geometry" />
        </mxCell>
        <mxCell id="vaa7z4H8c23S9jBAUSb3-21" value="modelo" style="ellipse;whiteSpace=wrap;html=1;aspect=fixed;" parent="1" vertex="1">
          <mxGeometry x="90" y="510" width="50" height="50" as="geometry" />
        </mxCell>
        <mxCell id="vaa7z4H8c23S9jBAUSb3-22" value="número" style="ellipse;whiteSpace=wrap;html=1;aspect=fixed;fillColor=#e1d5e7;strokeColor=#9673a6;" parent="1" vertex="1">
          <mxGeometry x="160" y="510" width="50" height="50" as="geometry" />
        </mxCell>
        <mxCell id="vaa7z4H8c23S9jBAUSb3-23" value="" style="endArrow=none;html=1;rounded=0;entryX=0;entryY=1;entryDx=0;entryDy=0;exitX=1;exitY=0;exitDx=0;exitDy=0;" parent="1" source="vaa7z4H8c23S9jBAUSb3-20" target="vaa7z4H8c23S9jBAUSb3-4" edge="1">
          <mxGeometry width="50" height="50" relative="1" as="geometry">
            <mxPoint x="210" y="430" as="sourcePoint" />
            <mxPoint x="260" y="380" as="targetPoint" />
          </mxGeometry>
        </mxCell>
        <mxCell id="vaa7z4H8c23S9jBAUSb3-24" value="" style="endArrow=none;html=1;rounded=0;entryX=0.5;entryY=1;entryDx=0;entryDy=0;exitX=0.5;exitY=0;exitDx=0;exitDy=0;" parent="1" source="vaa7z4H8c23S9jBAUSb3-21" target="vaa7z4H8c23S9jBAUSb3-4" edge="1">
          <mxGeometry width="50" height="50" relative="1" as="geometry">
            <mxPoint x="123" y="507" as="sourcePoint" />
            <mxPoint x="150" y="460" as="targetPoint" />
          </mxGeometry>
        </mxCell>
        <mxCell id="vaa7z4H8c23S9jBAUSb3-25" value="" style="endArrow=none;html=1;rounded=0;entryX=0.5;entryY=1;entryDx=0;entryDy=0;exitX=0.5;exitY=0;exitDx=0;exitDy=0;" parent="1" source="vaa7z4H8c23S9jBAUSb3-22" target="vaa7z4H8c23S9jBAUSb3-4" edge="1">
          <mxGeometry width="50" height="50" relative="1" as="geometry">
            <mxPoint x="185" y="530" as="sourcePoint" />
            <mxPoint x="210" y="460" as="targetPoint" />
          </mxGeometry>
        </mxCell>
        <mxCell id="vaa7z4H8c23S9jBAUSb3-26" value="turno" style="ellipse;whiteSpace=wrap;html=1;aspect=fixed;" parent="1" vertex="1">
          <mxGeometry x="600" y="500" width="50" height="50" as="geometry" />
        </mxCell>
        <mxCell id="vaa7z4H8c23S9jBAUSb3-27" value="" style="endArrow=none;html=1;rounded=0;entryX=0.5;entryY=1;entryDx=0;entryDy=0;" parent="1" source="vaa7z4H8c23S9jBAUSb3-26" target="vaa7z4H8c23S9jBAUSb3-5" edge="1">
          <mxGeometry width="50" height="50" relative="1" as="geometry">
            <mxPoint x="737" y="497" as="sourcePoint" />
            <mxPoint x="700" y="470" as="targetPoint" />
          </mxGeometry>
        </mxCell>
        <mxCell id="vaa7z4H8c23S9jBAUSb3-28" value="color" style="ellipse;whiteSpace=wrap;html=1;aspect=fixed;fillColor=#d5e8d4;strokeColor=#82b366;" parent="1" vertex="1">
          <mxGeometry x="120" y="80" width="50" height="50" as="geometry" />
        </mxCell>
        <mxCell id="vaa7z4H8c23S9jBAUSb3-29" value="" style="endArrow=none;html=1;rounded=0;entryX=0.25;entryY=0;entryDx=0;entryDy=0;exitX=1;exitY=1;exitDx=0;exitDy=0;" parent="1" source="vaa7z4H8c23S9jBAUSb3-28" target="vaa7z4H8c23S9jBAUSb3-2" edge="1">
          <mxGeometry width="50" height="50" relative="1" as="geometry">
            <mxPoint x="230" y="350" as="sourcePoint" />
            <mxPoint x="280" y="300" as="targetPoint" />
          </mxGeometry>
        </mxCell>
        <mxCell id="vaa7z4H8c23S9jBAUSb3-30" value="Repuesto" style="rounded=0;whiteSpace=wrap;html=1;" parent="1" vertex="1">
          <mxGeometry x="-40" y="180" width="120" height="60" as="geometry" />
        </mxCell>
        <mxCell id="vaa7z4H8c23S9jBAUSb3-31" value="repuesto- máquina" style="rhombus;whiteSpace=wrap;html=1;" parent="1" vertex="1">
          <mxGeometry x="-20" y="290" width="80" height="60" as="geometry" />
        </mxCell>
        <mxCell id="vaa7z4H8c23S9jBAUSb3-33" value="" style="endArrow=none;html=1;rounded=0;exitX=0.003;exitY=0.167;exitDx=0;exitDy=0;entryX=0.5;entryY=1;entryDx=0;entryDy=0;exitPerimeter=0;" parent="1" source="vaa7z4H8c23S9jBAUSb3-4" target="vaa7z4H8c23S9jBAUSb3-31" edge="1">
          <mxGeometry width="50" height="50" relative="1" as="geometry">
            <mxPoint x="170" y="350" as="sourcePoint" />
            <mxPoint x="220" y="300" as="targetPoint" />
            <Array as="points">
              <mxPoint x="20" y="420" />
            </Array>
          </mxGeometry>
        </mxCell>
        <mxCell id="vaa7z4H8c23S9jBAUSb3-34" value="" style="endArrow=none;html=1;rounded=0;entryX=0.5;entryY=1;entryDx=0;entryDy=0;exitX=1.007;exitY=0.167;exitDx=0;exitDy=0;exitPerimeter=0;" parent="1" source="vaa7z4H8c23S9jBAUSb3-4" target="vaa7z4H8c23S9jBAUSb3-9" edge="1">
          <mxGeometry width="50" height="50" relative="1" as="geometry">
            <mxPoint x="180" y="421" as="sourcePoint" />
            <mxPoint x="210" y="350" as="targetPoint" />
            <Array as="points">
              <mxPoint x="210" y="420" />
            </Array>
          </mxGeometry>
        </mxCell>
        <mxCell id="vaa7z4H8c23S9jBAUSb3-35" value="" style="shape=requiredInterface;html=1;verticalLabelPosition=bottom;sketch=0;rotation=-90;" parent="1" vertex="1">
          <mxGeometry x="122.5" y="222.5" width="10" height="315" as="geometry" />
        </mxCell>
        <mxCell id="vaa7z4H8c23S9jBAUSb3-37" value="" style="endArrow=none;html=1;rounded=0;entryX=0.5;entryY=1;entryDx=0;entryDy=0;exitX=0.5;exitY=0;exitDx=0;exitDy=0;" parent="1" source="vaa7z4H8c23S9jBAUSb3-9" target="vaa7z4H8c23S9jBAUSb3-2" edge="1">
          <mxGeometry width="50" height="50" relative="1" as="geometry">
            <mxPoint x="240" y="250" as="sourcePoint" />
            <mxPoint x="290" y="200" as="targetPoint" />
          </mxGeometry>
        </mxCell>
        <mxCell id="vaa7z4H8c23S9jBAUSb3-38" value="" style="endArrow=none;html=1;rounded=0;entryX=0.5;entryY=1;entryDx=0;entryDy=0;exitX=0.5;exitY=0;exitDx=0;exitDy=0;" parent="1" source="vaa7z4H8c23S9jBAUSb3-31" target="vaa7z4H8c23S9jBAUSb3-30" edge="1">
          <mxGeometry width="50" height="50" relative="1" as="geometry">
            <mxPoint x="220" y="290" as="sourcePoint" />
            <mxPoint x="220" y="250" as="targetPoint" />
          </mxGeometry>
        </mxCell>
        <mxCell id="vaa7z4H8c23S9jBAUSb3-39" value="es reemplazada&lt;div&gt;1&lt;/div&gt;" style="text;html=1;align=center;verticalAlign=middle;whiteSpace=wrap;rounded=0;" parent="1" vertex="1">
          <mxGeometry x="30" y="250" width="60" height="30" as="geometry" />
        </mxCell>
        <mxCell id="vaa7z4H8c23S9jBAUSb3-40" value="reemplaza&lt;div&gt;1&lt;/div&gt;" style="text;html=1;align=center;verticalAlign=middle;whiteSpace=wrap;rounded=0;" parent="1" vertex="1">
          <mxGeometry x="-20" y="425" width="60" height="30" as="geometry" />
        </mxCell>
        <mxCell id="vaa7z4H8c23S9jBAUSb3-41" value="pertenece&lt;div&gt;1&lt;/div&gt;" style="text;html=1;align=center;verticalAlign=middle;whiteSpace=wrap;rounded=0;" parent="1" vertex="1">
          <mxGeometry x="210" y="240" width="60" height="30" as="geometry" />
        </mxCell>
        <mxCell id="vaa7z4H8c23S9jBAUSb3-42" value="tiene&lt;div&gt;(1,N)&lt;/div&gt;" style="text;html=1;align=center;verticalAlign=middle;whiteSpace=wrap;rounded=0;" parent="1" vertex="1">
          <mxGeometry x="210" y="395" width="60" height="30" as="geometry" />
        </mxCell>
        <mxCell id="vaa7z4H8c23S9jBAUSb3-43" value="" style="endArrow=none;html=1;rounded=0;entryX=0;entryY=0.5;entryDx=0;entryDy=0;exitX=1;exitY=0.5;exitDx=0;exitDy=0;" parent="1" source="vaa7z4H8c23S9jBAUSb3-2" target="vaa7z4H8c23S9jBAUSb3-8" edge="1">
          <mxGeometry width="50" height="50" relative="1" as="geometry">
            <mxPoint x="210" y="370" as="sourcePoint" />
            <mxPoint x="260" y="320" as="targetPoint" />
          </mxGeometry>
        </mxCell>
        <mxCell id="vaa7z4H8c23S9jBAUSb3-44" value="" style="endArrow=none;html=1;rounded=0;entryX=0;entryY=0.5;entryDx=0;entryDy=0;exitX=1;exitY=0.5;exitDx=0;exitDy=0;" parent="1" source="vaa7z4H8c23S9jBAUSb3-8" target="vaa7z4H8c23S9jBAUSb3-3" edge="1">
          <mxGeometry width="50" height="50" relative="1" as="geometry">
            <mxPoint x="280" y="220" as="sourcePoint" />
            <mxPoint x="384" y="220" as="targetPoint" />
          </mxGeometry>
        </mxCell>
        <mxCell id="vaa7z4H8c23S9jBAUSb3-45" value="&lt;div&gt;ocurre&lt;/div&gt;&lt;div&gt;1&lt;/div&gt;" style="text;html=1;align=center;verticalAlign=middle;whiteSpace=wrap;rounded=0;" parent="1" vertex="1">
          <mxGeometry x="270" y="170" width="90" height="30" as="geometry" />
        </mxCell>
        <mxCell id="vaa7z4H8c23S9jBAUSb3-46" value="tiene&lt;div&gt;(0, N)&lt;/div&gt;" style="text;html=1;align=center;verticalAlign=middle;whiteSpace=wrap;rounded=0;" parent="1" vertex="1">
          <mxGeometry x="500" y="170" width="60" height="30" as="geometry" />
        </mxCell>
        <mxCell id="vaa7z4H8c23S9jBAUSb3-47" value="máquina- técnico" style="rhombus;whiteSpace=wrap;html=1;" parent="1" vertex="1">
          <mxGeometry x="374" y="410" width="80" height="60" as="geometry" />
        </mxCell>
        <mxCell id="vaa7z4H8c23S9jBAUSb3-48" value="" style="endArrow=none;html=1;rounded=0;entryX=0;entryY=0.5;entryDx=0;entryDy=0;exitX=1;exitY=0.5;exitDx=0;exitDy=0;" parent="1" source="vaa7z4H8c23S9jBAUSb3-47" target="vaa7z4H8c23S9jBAUSb3-5" edge="1">
          <mxGeometry width="50" height="50" relative="1" as="geometry">
            <mxPoint x="420" y="420" as="sourcePoint" />
            <mxPoint x="470" y="370" as="targetPoint" />
          </mxGeometry>
        </mxCell>
        <mxCell id="vaa7z4H8c23S9jBAUSb3-49" value="" style="endArrow=none;html=1;rounded=0;entryX=0;entryY=0.5;entryDx=0;entryDy=0;exitX=1;exitY=0.5;exitDx=0;exitDy=0;" parent="1" source="vaa7z4H8c23S9jBAUSb3-4" target="vaa7z4H8c23S9jBAUSb3-47" edge="1">
          <mxGeometry width="50" height="50" relative="1" as="geometry">
            <mxPoint x="464" y="450" as="sourcePoint" />
            <mxPoint x="580" y="450" as="targetPoint" />
          </mxGeometry>
        </mxCell>
        <mxCell id="vaa7z4H8c23S9jBAUSb3-50" value="Text" style="text;html=1;align=center;verticalAlign=middle;whiteSpace=wrap;rounded=0;" parent="1" vertex="1">
          <mxGeometry x="510" y="410" width="60" height="30" as="geometry" />
        </mxCell>
      </root>
    </mxGraphModel>
  </diagram>
</mxfile>
